<svg xmlns="http://www.w3.org/2000/svg" xmlns:xlink="http://www.w3.org/1999/xlink" width="512" height="512" viewBox="0 0 512 512">
  <defs>
    <clipPath id="clip-favicon">
      <rect width="512" height="512"/>
    </clipPath>
  </defs>
  <g id="favicon" clip-path="url(#clip-favicon)">
  <style>
		path {
			fill: #000000;
		}
		@media ( prefers-color-scheme: dark ) {
			path {
				fill: #f6f6f6;
			}
		}
	</style>
    <path id="ng_logo_white_no-border" d="M292.154,278.738,325.3,234.02h14.206l-8.95,61.559-41.387,53.967,14.916,10.812L171.419,487.74l1.863-10.434L292.9,305.145,266.757,294.4l-92.418,67.447-2.983-4.467,6.708-150.189,73.413-29.8-5.225,33.526L188.94,237l-10.434,109.56,2.226,1.484L261.6,279.858l-4.467-37.267,11.554-22.351,4.846-46.217-7.45-5.588-4.483.742L172.161,53.951l91.676,99.158-7.892-55.53L198.616,53.288l-11.538-37.63H152.352L140.86,53.288,83.468,97.627l-7.813,55.482,91.66-99.079L77.88,169.257l-4.467-.742-7.45,5.588,4.846,46.217L82.363,242.67,77.88,279.858l80.864,68.189,2.241-1.484L150.552,237,93.128,210.912l-5.209-33.526,73.413,29.8,6.708,150.189-2.983,4.467L72.608,294.4,46.517,305.208,166.131,477.369,168.01,487.8,35.4,360.359l14.9-10.812L8.95,295.516,0,234.02H14.206l33.147,44.717h9.329l2.6-28.7-7.892-22.351-8.571-59.255,10.055-4.467L65.932,85.331l59.981-45.775L143.844,0h51.883l17.884,39.461,59.981,45.775,13.038,78.638,10.071,4.467L288.129,227.6l-7.892,22.351,2.6,28.7Z" transform="translate(86.246 12.099)" fill-rule="evenodd"/>
  </g>
</svg>
