<svg width="285" height="35" viewBox="0 0 285 35" fill="none" xmlns="http://www.w3.org/2000/svg">
<g clip-path="url(#clip0_14470_76540)">
<path d="M61.513 8.19481C63.5727 8.14933 65.6155 8.57663 67.4843 9.44391C69.0946 10.214 70.4409 11.4437 71.3534 12.9779C72.3009 14.6248 72.7754 16.5014 72.7244 18.4008C72.7778 20.3198 72.3036 22.2166 71.3534 23.8846C70.4409 25.4188 69.0946 26.6485 67.4843 27.4186C65.8086 28.2412 63.8284 28.6373 61.513 28.6373H54.5668L54.5364 27.4186H61.1779C62.4732 27.4551 63.7454 27.0702 64.8033 26.3219C65.865 25.5175 66.6781 24.4298 67.1491 23.1839C67.7244 21.6562 68.0035 20.0329 67.9717 18.4008C68.0062 16.7685 67.7269 15.1447 67.1491 13.6177C66.6879 12.3748 65.8723 11.2943 64.8033 10.5102C63.7539 9.74448 62.4757 9.35778 61.1779 9.41344H54.2287V8.19481H61.513ZM57.5525 8.19481V28.6677H53.1654V8.19481H57.5525ZM53.2568 26.5351V28.6677H50.9109V28.3631H51.2765C51.7632 28.36 52.2296 28.1674 52.5766 27.8261C52.9236 27.4848 53.1239 27.0217 53.1349 26.5351H53.2568ZM53.2568 10.3274H53.1654C53.1691 10.0876 53.1222 9.84963 53.0277 9.62915C52.9332 9.40867 52.7933 9.2106 52.617 9.04785C52.4483 8.8711 52.2448 8.73114 52.0193 8.63677C51.7939 8.54241 51.5514 8.49566 51.307 8.49947H50.9719L50.9414 8.19481H53.2873L53.2568 10.3274ZM81.1938 8.19481V28.6677H76.8067V8.19481H81.1938ZM88.9016 27.4186L89.6023 28.6677H81.1024V27.4186H88.9016ZM87.8353 17.9743V19.1929H81.1024V17.9743H87.8353ZM89.2641 8.19481V9.44391H81.0994V8.19481H89.2641ZM91.0616 22.666L89.7211 28.6677H83.9936L85.0599 27.4186C85.9291 27.4487 86.7923 27.2643 87.5733 26.8817C88.3544 26.4992 89.0292 25.9302 89.5383 25.2251C90.0926 24.4466 90.5146 23.5819 90.7874 22.666H91.0616ZM87.8323 19.132V21.9348H87.5276V21.6911C87.5368 21.3599 87.4796 21.0302 87.3592 20.7214C87.2389 20.4127 87.0579 20.1312 86.8269 19.8936C86.3422 19.4307 85.6997 19.1693 85.0294 19.1624V19.1015L87.8323 19.132ZM87.8323 15.2019V18.0048H85.0599V17.9438C85.38 17.9519 85.6985 17.8969 85.9973 17.7818C86.2961 17.6668 86.5694 17.494 86.8013 17.2733C87.0333 17.0526 87.2196 16.7884 87.3494 16.4957C87.4793 16.203 87.5502 15.8876 87.5581 15.5675V15.2019H87.8323ZM89.2641 9.35251V12.7647H88.9595V12.3991C88.9719 12.0021 88.9056 11.6066 88.7644 11.2353C88.6232 10.8641 88.41 10.5245 88.1369 10.236C87.8542 9.95304 87.5162 9.73128 87.1441 9.58453C86.772 9.43778 86.3736 9.36917 85.9739 9.38297V9.32204L89.2641 9.35251ZM89.2641 7.6769V8.52994L85.6997 8.19481C86.1481 8.19575 86.596 8.16521 87.0402 8.10342C87.5276 8.04249 87.9846 7.98155 88.3806 7.89016C88.6821 7.85156 88.9783 7.78005 89.2641 7.6769V7.6769ZM76.8951 26.5351V28.6677H74.5492V28.3631H74.9148C75.4015 28.36 75.8679 28.1674 76.2149 27.8261C76.5618 27.4848 76.7621 27.0217 76.7732 26.5351H76.8951ZM76.8951 10.3274H76.8037C76.8018 10.0855 76.7493 9.84675 76.6497 9.62639C76.55 9.40602 76.4053 9.20895 76.2249 9.04785C76.0665 8.8661 75.8693 8.7224 75.6477 8.62746C75.4262 8.53251 75.1861 8.48876 74.9453 8.49947H74.5797V8.19481H76.9256V10.3274H76.8951ZM121.192 20.4725V25.286C120.586 25.9791 119.877 26.575 119.09 27.053C118.065 27.688 116.958 28.18 115.8 28.5154C114.403 28.9109 112.955 29.0957 111.504 29.0638C109.48 29.1132 107.473 28.6743 105.655 27.7842C104.04 26.9353 102.699 25.6467 101.786 24.0674C100.834 22.3336 100.361 20.3778 100.415 18.4008C100.415 16.2073 100.872 14.3184 101.755 12.7647C102.665 11.1877 104.022 9.91555 105.655 9.10878C107.519 8.19123 109.579 7.7416 111.656 7.79876C113.661 7.83255 115.654 8.09836 117.597 8.59087C118.34 8.77418 119.056 9.05056 119.73 9.41344L119.791 14.4098H119.517C119.239 13.2459 118.697 12.1616 117.932 11.2414C117.265 10.4759 116.417 9.88944 115.465 9.5353C114.531 9.18169 113.539 9.00602 112.54 9.01739C111.119 8.95723 109.717 9.35774 108.542 10.1593C107.367 10.9608 106.483 12.1204 106.02 13.4654C105.444 15.109 105.166 16.8422 105.198 18.5836C105.16 20.2507 105.418 21.9114 105.959 23.4886C106.391 24.7641 107.185 25.8863 108.244 26.7179C109.301 27.4751 110.57 27.8802 111.87 27.8756C112.573 27.8709 113.272 27.7579 113.941 27.5405C114.598 27.3206 115.208 26.9796 115.739 26.5351C116.235 26.1164 116.604 25.5678 116.805 24.9509L116.836 20.4725C116.836 19.589 116.348 19.1624 115.343 19.1624H114.886V18.8578H123.111V19.1624H122.685C121.652 19.1624 121.165 19.589 121.195 20.4725H121.192ZM130.606 8.19481V21.0513C130.583 22.2827 130.811 23.5058 131.276 24.6463C131.681 25.6256 132.379 26.4557 133.274 27.023C134.169 27.5902 135.217 27.8667 136.276 27.8147C137.351 27.8379 138.413 27.575 139.353 27.053C140.232 26.5314 140.933 25.7562 141.363 24.8291C141.851 23.7698 142.091 22.6132 142.064 21.4474V8.19481H144.166V21.2646C144.211 22.7149 143.853 24.1493 143.13 25.4079C142.469 26.5891 141.458 27.5363 140.236 28.1193C138.816 28.781 137.263 29.1043 135.697 29.0638C133.625 29.0638 131.889 28.7591 130.457 28.1193C129.141 27.5617 128.018 26.6294 127.227 25.4384C126.499 24.1809 126.131 22.7477 126.161 21.295V8.19481H130.606ZM126.31 8.19481V9.96182H126.219C126.224 9.76607 126.186 9.57155 126.107 9.39239C126.028 9.21322 125.91 9.0539 125.762 8.92599C125.473 8.65494 125.092 8.50268 124.696 8.49947H124.239V8.19481H126.31ZM132.647 8.19481V8.49947H132.19C131.788 8.49114 131.397 8.63227 131.093 8.89552C130.945 9.02957 130.827 9.19434 130.748 9.37845C130.669 9.56255 130.631 9.7616 130.636 9.96182H130.576V8.19481H132.647ZM142.183 8.19481V9.96182H142.092C142.097 9.76607 142.059 9.57155 141.98 9.39239C141.901 9.21322 141.783 9.0539 141.635 8.92599C141.345 8.65494 140.965 8.50268 140.568 8.49947H140.111V8.19481H142.183ZM146.204 8.19481V8.49947H145.747C145.345 8.49114 144.955 8.63227 144.651 8.89552C144.5 9.02697 144.384 9.19212 144.309 9.37745C144.235 9.56278 144.206 9.76304 144.224 9.96182H144.133V8.19481H146.204ZM156.289 7.61597L165.855 28.5154H160.584L154.491 13.2826L156.289 7.61597ZM149.982 26.5351C149.83 26.848 149.798 27.2054 149.891 27.5405C149.981 27.8001 150.152 28.0242 150.378 28.1803C150.59 28.3101 150.831 28.3836 151.079 28.3935H151.353V28.6982H145.108V28.3935H145.382C145.866 28.3887 146.34 28.2518 146.753 27.9975C147.289 27.6558 147.704 27.1551 147.941 26.5656L149.982 26.5351ZM156.289 7.61597L156.41 11.1804L149.16 28.5763H147.027L154.613 11.4242C154.674 11.3023 154.765 11.089 154.918 10.7844C155.07 10.4797 155.222 10.0837 155.375 9.68763C155.527 9.29158 155.71 8.89552 155.832 8.52994C155.946 8.23694 156.017 7.9292 156.045 7.61597H156.289ZM159.366 21.6911V22.9097H150.744V21.6911H159.366ZM159.792 26.5047H164.91C165.175 27.0772 165.585 27.5707 166.099 27.9365C166.513 28.1873 166.986 28.3239 167.469 28.3326H167.713V28.6373H158.391V28.3326H158.665C159.057 28.3235 159.43 28.1592 159.701 27.8756C160.005 27.571 160.036 27.114 159.792 26.5047V26.5047ZM174.477 8.16435H178.254C179.127 8.16034 179.996 8.26265 180.844 8.469C181.637 8.64304 182.392 8.96331 183.068 9.41344C183.737 9.83275 184.283 10.4213 184.652 11.1195C185.069 11.9169 185.269 12.8101 185.231 13.7091C185.227 14.5582 185.05 15.3976 184.713 16.1768C184.368 17.0445 183.784 17.7968 183.029 18.3467C182.275 18.8966 181.38 19.2217 180.448 19.2843C181.092 19.5021 181.676 19.8672 182.154 20.3506C182.637 20.8078 183.067 21.3189 183.433 21.8739C183.464 21.9044 183.555 22.0871 183.738 22.3918C183.921 22.6965 184.195 23.0925 184.5 23.5495C184.804 24.0065 185.14 24.4635 185.475 24.9205C185.81 25.3774 186.114 25.804 186.389 26.1391C186.751 26.5866 187.137 27.0137 187.546 27.4186C187.865 27.7181 188.237 27.9558 188.643 28.1193C189.077 28.2619 189.528 28.3439 189.984 28.3631V28.6677H187.089C186.128 28.6685 185.169 28.5767 184.226 28.3935C183.411 28.2092 182.637 27.8789 181.941 27.4186C181.243 26.9344 180.652 26.3123 180.204 25.5907C180.016 25.3054 179.843 25.0105 179.686 24.7072C179.503 24.3416 179.321 23.9456 179.138 23.5495C178.955 23.1534 178.742 22.7574 178.559 22.3918C178.386 22.0453 178.234 21.6893 178.102 21.3255C177.98 20.9904 177.858 20.7771 177.797 20.5943C177.599 20.0659 177.287 19.5874 176.883 19.1929C176.606 18.8974 176.244 18.6951 175.848 18.6141V18.3094H176.761C177.285 18.3144 177.804 18.2106 178.285 18.0048C178.812 17.7645 179.273 17.3983 179.625 16.9385C180.051 16.3549 180.323 15.6741 180.417 14.9582C180.448 14.7449 180.478 14.5621 180.509 14.3489C180.549 14.0869 180.56 13.8211 180.539 13.5568C180.478 12.1553 180.143 11.1195 179.473 10.4797C179.166 10.1494 178.793 9.88667 178.379 9.70832C177.964 9.52998 177.517 9.43993 177.066 9.44391C176.762 9.41336 176.456 9.41336 176.152 9.44391H174.751C174.72 9.32204 174.69 9.23065 174.659 9.10878C174.623 8.89234 174.572 8.67859 174.507 8.469C174.47 8.37189 174.46 8.26681 174.477 8.16435V8.16435ZM174.873 8.16435V28.6373H170.486V8.19481L174.873 8.16435ZM170.546 26.5351V28.6677H168.201V28.3631H168.566C169.053 28.36 169.519 28.1674 169.866 27.8261C170.213 27.4848 170.414 27.0217 170.425 26.5351H170.546ZM170.546 10.3274H170.455C170.453 10.0855 170.401 9.84675 170.301 9.62639C170.201 9.40602 170.057 9.20895 169.876 9.04785C169.718 8.8661 169.521 8.7224 169.299 8.62746C169.078 8.53251 168.837 8.48876 168.597 8.49947H168.201V8.19481H170.546V10.3274ZM174.751 26.5351H174.842C174.848 27.0264 175.045 27.4961 175.391 27.8452C175.567 28.0176 175.777 28.1523 176.008 28.2414C176.238 28.3304 176.484 28.3718 176.731 28.3631H177.097V28.6677H174.781L174.751 26.5351ZM200.25 8.19481C202.311 8.14605 204.354 8.57351 206.222 9.44391C207.832 10.214 209.178 11.4437 210.091 12.9779C211.005 14.5012 211.462 16.2987 211.462 18.4313C211.515 20.3502 211.041 22.247 210.091 23.9151C209.178 25.4493 207.832 26.679 206.222 27.4491C204.546 28.2717 202.566 28.6677 200.25 28.6677H193.274L193.243 27.4491H199.885C201.18 27.4855 202.452 27.1007 203.51 26.3523C204.581 25.5566 205.396 24.4661 205.856 23.2144C206.434 21.6768 206.713 20.043 206.679 18.4008C206.713 16.7685 206.434 15.1447 205.856 13.6177C205.395 12.3748 204.579 11.2943 203.51 10.5102C202.452 9.76187 201.18 9.37701 199.885 9.41344H192.969V8.19481H200.25ZM196.26 8.19481V28.6677H191.872V8.19481H196.26ZM191.964 26.5351V28.6677H189.618V28.3631H189.984C190.47 28.36 190.937 28.1674 191.284 27.8261C191.631 27.4848 191.831 27.0217 191.842 26.5351H191.964ZM191.964 10.3274H191.872C191.876 10.0876 191.829 9.84963 191.735 9.62915C191.64 9.40867 191.5 9.2106 191.324 9.04785C191.155 8.8711 190.952 8.73114 190.726 8.63677C190.501 8.54241 190.258 8.49566 190.014 8.49947H189.648L189.618 8.19481H191.964V10.3274V10.3274ZM219.901 8.19481V28.6677H215.514V8.19481H219.901ZM215.605 26.5351V28.6677H213.29V28.3631H213.655C214.142 28.36 214.608 28.1674 214.955 27.8261C215.302 27.4848 215.503 27.0217 215.514 26.5351H215.605ZM215.605 10.3274H215.514C215.512 10.0855 215.459 9.84675 215.36 9.62639C215.26 9.40602 215.115 9.20895 214.935 9.04785C214.777 8.8661 214.579 8.7224 214.358 8.62746C214.136 8.53251 213.896 8.48876 213.655 8.49947H213.29V8.19481H215.636L215.605 10.3274ZM219.84 26.5351H219.931C219.951 27.0234 220.146 27.4882 220.48 27.8452C220.835 28.1773 221.303 28.3624 221.79 28.3631H222.155V28.6677H219.809L219.84 26.5351ZM219.84 10.3274V8.19481H222.186V8.49947H221.82C221.576 8.49566 221.333 8.54241 221.108 8.63677C220.882 8.73114 220.679 8.8711 220.51 9.04785C220.166 9.38534 219.969 9.84525 219.962 10.3274H219.84ZM233.549 7.61597L243.116 28.4849H237.845L231.752 13.2521L233.549 7.61597ZM227.243 26.5351C227.091 26.848 227.059 27.2054 227.152 27.5405C227.242 27.8001 227.413 28.0242 227.639 28.1803C227.851 28.3101 228.092 28.3836 228.34 28.3935H228.614V28.6982H222.338V28.3935H222.612C223.097 28.3887 223.571 28.2518 223.983 27.9975C224.519 27.6558 224.934 27.1551 225.171 26.5656L227.243 26.5351ZM233.549 7.61597L233.671 11.1804L226.39 28.5763H224.257L231.843 11.4242C231.904 11.3023 231.996 11.089 232.148 10.7844C232.3 10.4797 232.453 10.0837 232.605 9.68763C232.757 9.29158 232.94 8.89552 233.062 8.52994C233.176 8.23694 233.248 7.9292 233.275 7.61597H233.549ZM236.596 21.6911V22.9097H228.005V21.6911H236.596ZM237.053 26.5351H242.171C242.436 27.1077 242.846 27.6012 243.359 27.967C243.773 28.2177 244.246 28.3544 244.73 28.3631H244.974V28.6677H235.682V28.3631H235.956C236.348 28.354 236.721 28.1896 236.992 27.9061C237.269 27.571 237.3 27.114 237.056 26.5351H237.053ZM247.32 7.73783L265.965 25.5298L266.33 29.0638L247.655 11.3328L247.32 7.73783ZM247.442 26.5961V28.6677H245.005V28.3631H245.583C246.053 28.3555 246.501 28.1678 246.835 27.8389C247.17 27.51 247.365 27.065 247.381 26.5961H247.442ZM251.555 26.5961C251.556 26.8303 251.603 27.0621 251.694 27.2779C251.786 27.4937 251.919 27.6894 252.086 27.8537C252.253 28.0179 252.451 28.1475 252.668 28.2349C252.885 28.3223 253.118 28.3659 253.352 28.3631H253.901V28.6677H251.463V26.5656L251.555 26.5961ZM247.32 7.73783L251.524 12.2163L251.555 28.6677H247.381V11.3937C247.397 10.5167 247.336 9.63996 247.198 8.77366C247.076 8.10342 247.015 7.73783 247.015 7.73783H247.32ZM266.239 8.19481V25.347C266.235 25.9981 266.266 26.6489 266.33 27.2968C266.391 27.8756 266.452 28.3021 266.513 28.6068L266.605 29.0638H266.33L262.096 24.3111V8.16435L266.239 8.19481ZM268.585 8.19481V8.49947H268.067C267.834 8.49428 267.603 8.53766 267.388 8.62683C267.173 8.71601 266.979 8.84902 266.818 9.01739C266.479 9.34627 266.282 9.79452 266.27 10.2665H266.178V8.16435H268.585V8.19481ZM259.719 8.19481H262.157V10.2665H262.096C262.095 10.0317 262.046 9.79958 261.952 9.58463C261.858 9.36967 261.72 9.17655 261.547 9.01739C261.387 8.84811 261.193 8.71449 260.978 8.62524C260.763 8.536 260.531 8.49315 260.298 8.49947H259.75L259.719 8.19481ZM277.572 7.7683C277.968 7.7683 278.425 7.79876 279.004 7.82923C279.583 7.85969 280.192 7.92062 280.802 8.01202C281.411 8.10342 281.959 8.13388 282.416 8.22528C282.749 8.25244 283.077 8.32416 283.391 8.43854L283.026 12.3991H282.721C282.736 11.93 282.639 11.4641 282.438 11.0401C282.236 10.6162 281.936 10.2465 281.563 9.96182C280.711 9.30356 279.653 8.9689 278.578 9.01739C277.598 8.9794 276.633 9.26881 275.836 9.83996C275.52 10.0701 275.258 10.3666 275.068 10.7087C274.879 11.0507 274.766 11.4301 274.739 11.8202C274.72 12.3794 274.916 12.9246 275.287 13.3435C275.721 13.8135 276.225 14.2142 276.78 14.5317L282.355 18.1571C283.219 18.6187 283.928 19.324 284.394 20.1852C284.859 21.0465 285.062 22.0257 284.975 23.0011C284.884 24.9205 284.153 26.3828 282.782 27.4491C281.411 28.5154 279.556 29.0333 277.237 29.0333C276.389 29.0277 275.542 28.9461 274.709 28.7896C273.979 28.672 273.265 28.4779 272.576 28.2107C272.017 27.9919 271.508 27.66 271.083 27.2358C270.921 26.7346 270.849 26.2085 270.87 25.6821C270.901 25.0653 270.993 24.4531 271.144 23.8542C271.294 23.3123 271.509 22.7906 271.784 22.3004H272.058C271.954 23.2519 272.133 24.2128 272.572 25.0634C273.011 25.914 273.69 26.6166 274.526 27.0835C275.455 27.6006 276.511 27.8436 277.572 27.7842C278.852 27.7538 279.857 27.4491 280.558 26.8093C280.891 26.5219 281.158 26.1665 281.342 25.7671C281.526 25.3677 281.622 24.9336 281.624 24.4939C281.624 23.9007 281.432 23.3234 281.076 22.8488C280.594 22.2603 279.992 21.7824 279.309 21.4474L274.191 18.0657C273.235 17.5513 272.451 16.7673 271.936 15.8112C271.466 14.8907 271.276 13.853 271.388 12.8256C271.474 11.8812 271.787 10.9718 272.302 10.1751C272.816 9.39092 273.531 8.75953 274.373 8.34714C275.395 7.95576 276.481 7.75942 277.575 7.7683H277.572ZM283.391 8.07295L283.33 8.68226H279.857V8.07295H283.391Z" fill="#F6F6F6"/>
<path d="M2.28491 7.4939L20.9299 25.2858L21.2955 28.8198L2.62003 11.0888L2.28491 7.4939Z" fill="#F6F6F6"/>
<path d="M2.43725 26.3523V28.424H0V28.1193H0.548382C0.785293 28.1217 1.02034 28.0772 1.23995 27.9883C1.45957 27.8994 1.65941 27.7679 1.82794 27.6014C2.15852 27.2696 2.34466 26.8207 2.34585 26.3523H2.43725Z" fill="#F6F6F6"/>
<path d="M6.51956 26.3523C6.5274 26.8266 6.71929 27.2792 7.0547 27.6146C7.39011 27.95 7.84276 28.1419 8.31703 28.1498H8.86541V28.4544H6.42816V26.3523H6.51956Z" fill="#F6F6F6"/>
<path d="M2.28494 7.4939L6.4892 11.9723L6.51967 28.4238H2.34587V11.1498C2.37718 10.2724 2.31591 9.39423 2.16308 8.52973L1.98029 7.4939H2.28494Z" fill="#F6F6F6"/>
<path d="M21.1737 7.95093V25.0726C21.1701 25.7237 21.2006 26.3745 21.2651 27.0224C21.3261 27.6013 21.387 28.0583 21.4479 28.3324L21.5393 28.7894H21.2651L17.0304 24.0977V7.95093H21.1737Z" fill="#F6F6F6"/>
<path d="M22.9742 7.95088V8.25553H22.4563C22.2235 8.25035 21.9922 8.29372 21.7771 8.38289C21.5621 8.47207 21.368 8.60508 21.2072 8.77345C20.8684 9.10234 20.6716 9.55058 20.6588 10.0225H20.5674V7.92041H22.9742V7.95088Z" fill="#F6F6F6"/>
<path d="M14.6842 7.95093H17.1215V10.0226H17.0605C17.0601 9.78784 17.0112 9.55569 16.9169 9.34074C16.8225 9.12579 16.6847 8.93266 16.5121 8.7735C16.352 8.59587 16.1537 8.45694 15.932 8.36722C15.7103 8.2775 15.4712 8.23932 15.2326 8.25558H14.6842V7.95093Z" fill="#F6F6F6"/>
<path fill-rule="evenodd" clip-rule="evenodd" d="M49.2599 16.7982H48.2515L45.8873 19.9879H45.2232L45.0404 17.9406L45.5949 16.3442L46.2072 12.1156L45.4913 11.7957L44.5621 6.18395L40.2877 2.91194L39.0143 0.0908203H35.3279L34.0545 2.91194L29.7801 6.18395L28.8509 11.7957L28.135 12.1156L28.7474 16.3442L29.3049 17.9406L29.119 19.9879H28.4549L26.0938 16.7982H25.0854L25.7221 21.1852L28.6651 25.0422L27.6049 25.816L37.0523 34.9131L36.9182 34.1697L28.4001 21.8768L30.2585 21.106L36.839 25.9226L37.0523 25.6028L36.574 14.8819L31.3461 12.7523L31.7178 15.1469L35.8062 17.0084L36.5466 24.832L36.3881 24.9386L30.6301 20.0702L30.95 17.4075L30.1275 15.8111L29.7801 12.5147L30.3133 12.1156L30.6301 12.1674L36.9975 3.94777L30.4717 11.0249L31.0292 7.06136L35.1147 3.89598L35.9373 1.20891H38.405L39.2275 3.89598L43.316 7.06136L43.8705 11.0249L37.3448 3.94777L43.7121 12.1674L44.032 12.1156L44.5621 12.5147L44.2148 15.8111L43.3952 17.4075L43.7121 20.0702L37.9541 24.9386L37.7957 24.832L38.539 17.0084L42.6245 15.1469L42.9961 12.7523L37.7682 14.8819L37.2899 25.6028L37.5032 25.9226L44.0838 21.106L45.9422 21.8768L37.424 34.1697L37.2899 34.9131L46.7373 25.816L45.6771 25.0422L48.6201 21.1852L49.2599 16.7982Z" fill="#F6F6F6"/>
</g>
<defs>
<clipPath id="clip0_14470_76540">
<rect width="285" height="34.8222" fill="white" transform="translate(0 0.0908203)"/>
</clipPath>
</defs>
</svg>
